<mxfile host="Electron" agent="Mozilla/5.0 (Macintosh; Intel Mac OS X 10_15_7) AppleWebKit/537.36 (KHTML, like Gecko) draw.io/26.0.4 Chrome/128.0.6613.186 Electron/32.2.5 Safari/537.36" version="26.0.4">
  <diagram name="StrÃ¡nka-1" id="NAT6nW8b99xLUnw3-eRm">
    <mxGraphModel dx="954" dy="604" grid="1" gridSize="10" guides="1" tooltips="1" connect="1" arrows="1" fold="1" page="1" pageScale="1" pageWidth="827" pageHeight="1169" math="0" shadow="0">
      <root>
        <mxCell id="0" />
        <mxCell id="1" parent="0" />
        <mxCell id="ClLBJPwScbS-svVGo3NV-2" value="" style="shape=umlLifeline;perimeter=lifelinePerimeter;whiteSpace=wrap;html=1;container=1;dropTarget=0;collapsible=0;recursiveResize=0;outlineConnect=0;portConstraint=eastwest;newEdgeStyle={&quot;curved&quot;:0,&quot;rounded&quot;:0};participant=umlActor;" vertex="1" parent="1">
          <mxGeometry x="60" y="30" width="20" height="950" as="geometry" />
        </mxCell>
        <mxCell id="ClLBJPwScbS-svVGo3NV-3" value="GroupService" style="shape=umlLifeline;perimeter=lifelinePerimeter;whiteSpace=wrap;html=1;container=1;dropTarget=0;collapsible=0;recursiveResize=0;outlineConnect=0;portConstraint=eastwest;newEdgeStyle={&quot;curved&quot;:0,&quot;rounded&quot;:0};" vertex="1" parent="1">
          <mxGeometry x="210" y="30" width="100" height="950" as="geometry" />
        </mxCell>
        <mxCell id="ClLBJPwScbS-svVGo3NV-6" value="" style="html=1;points=[[0,0,0,0,5],[0,1,0,0,-5],[1,0,0,0,5],[1,1,0,0,-5]];perimeter=orthogonalPerimeter;outlineConnect=0;targetShapes=umlLifeline;portConstraint=eastwest;newEdgeStyle={&quot;curved&quot;:0,&quot;rounded&quot;:0};" vertex="1" parent="ClLBJPwScbS-svVGo3NV-3">
          <mxGeometry x="45" y="90" width="15" height="830" as="geometry" />
        </mxCell>
        <mxCell id="ClLBJPwScbS-svVGo3NV-21" value="" style="html=1;points=[[0,0,0,0,5],[0,1,0,0,-5],[1,0,0,0,5],[1,1,0,0,-5]];perimeter=orthogonalPerimeter;outlineConnect=0;targetShapes=umlLifeline;portConstraint=eastwest;newEdgeStyle={&quot;curved&quot;:0,&quot;rounded&quot;:0};" vertex="1" parent="ClLBJPwScbS-svVGo3NV-3">
          <mxGeometry x="60" y="380" width="10" height="40" as="geometry" />
        </mxCell>
        <mxCell id="ClLBJPwScbS-svVGo3NV-22" value="validateHeroName(group, hero)" style="html=1;align=left;spacingLeft=2;endArrow=block;rounded=0;edgeStyle=orthogonalEdgeStyle;curved=0;rounded=0;" edge="1" target="ClLBJPwScbS-svVGo3NV-21" parent="ClLBJPwScbS-svVGo3NV-3">
          <mxGeometry x="0.0118" relative="1" as="geometry">
            <mxPoint x="60" y="360" as="sourcePoint" />
            <Array as="points">
              <mxPoint x="60" y="340" />
              <mxPoint x="90" y="340" />
              <mxPoint x="90" y="390" />
            </Array>
            <mxPoint as="offset" />
          </mxGeometry>
        </mxCell>
        <mxCell id="ClLBJPwScbS-svVGo3NV-7" value="addHeroToGroup(groupId, heroId)" style="html=1;verticalAlign=bottom;endArrow=block;curved=0;rounded=0;" edge="1" target="ClLBJPwScbS-svVGo3NV-3" parent="1">
          <mxGeometry x="0.0026" relative="1" as="geometry">
            <mxPoint x="70" y="115" as="sourcePoint" />
            <mxPoint as="offset" />
          </mxGeometry>
        </mxCell>
        <mxCell id="ClLBJPwScbS-svVGo3NV-8" value="true" style="html=1;verticalAlign=bottom;endArrow=open;dashed=1;endSize=8;curved=0;rounded=0;exitX=0;exitY=1;exitDx=0;exitDy=-5;" edge="1" source="ClLBJPwScbS-svVGo3NV-6" parent="1" target="ClLBJPwScbS-svVGo3NV-2">
          <mxGeometry relative="1" as="geometry">
            <mxPoint x="70" y="185" as="targetPoint" />
          </mxGeometry>
        </mxCell>
        <mxCell id="ClLBJPwScbS-svVGo3NV-9" value="GroupRepository" style="shape=umlLifeline;perimeter=lifelinePerimeter;whiteSpace=wrap;html=1;container=1;dropTarget=0;collapsible=0;recursiveResize=0;outlineConnect=0;portConstraint=eastwest;newEdgeStyle={&quot;curved&quot;:0,&quot;rounded&quot;:0};" vertex="1" parent="1">
          <mxGeometry x="414" y="30" width="100" height="950" as="geometry" />
        </mxCell>
        <mxCell id="ClLBJPwScbS-svVGo3NV-15" value="" style="html=1;points=[[0,0,0,0,5],[0,1,0,0,-5],[1,0,0,0,5],[1,1,0,0,-5]];perimeter=orthogonalPerimeter;outlineConnect=0;targetShapes=umlLifeline;portConstraint=eastwest;newEdgeStyle={&quot;curved&quot;:0,&quot;rounded&quot;:0};" vertex="1" parent="ClLBJPwScbS-svVGo3NV-9">
          <mxGeometry x="45" y="110" width="10" height="60" as="geometry" />
        </mxCell>
        <mxCell id="ClLBJPwScbS-svVGo3NV-10" value="HeroRepository" style="shape=umlLifeline;perimeter=lifelinePerimeter;whiteSpace=wrap;html=1;container=1;dropTarget=0;collapsible=0;recursiveResize=0;outlineConnect=0;portConstraint=eastwest;newEdgeStyle={&quot;curved&quot;:0,&quot;rounded&quot;:0};" vertex="1" parent="1">
          <mxGeometry x="650" y="30" width="100" height="950" as="geometry" />
        </mxCell>
        <mxCell id="ClLBJPwScbS-svVGo3NV-18" value="" style="html=1;points=[[0,0,0,0,5],[0,1,0,0,-5],[1,0,0,0,5],[1,1,0,0,-5]];perimeter=orthogonalPerimeter;outlineConnect=0;targetShapes=umlLifeline;portConstraint=eastwest;newEdgeStyle={&quot;curved&quot;:0,&quot;rounded&quot;:0};" vertex="1" parent="ClLBJPwScbS-svVGo3NV-10">
          <mxGeometry x="40.5" y="230" width="10" height="80" as="geometry" />
        </mxCell>
        <mxCell id="ClLBJPwScbS-svVGo3NV-16" value="findById(groupId)" style="html=1;verticalAlign=bottom;endArrow=block;curved=0;rounded=0;entryX=0;entryY=0;entryDx=0;entryDy=5;" edge="1" target="ClLBJPwScbS-svVGo3NV-15" parent="1" source="ClLBJPwScbS-svVGo3NV-6">
          <mxGeometry x="0.0053" relative="1" as="geometry">
            <mxPoint x="310" y="145" as="sourcePoint" />
            <mxPoint as="offset" />
          </mxGeometry>
        </mxCell>
        <mxCell id="ClLBJPwScbS-svVGo3NV-17" value="group" style="html=1;verticalAlign=bottom;endArrow=open;dashed=1;endSize=8;curved=0;rounded=0;exitX=0;exitY=1;exitDx=0;exitDy=-5;" edge="1" source="ClLBJPwScbS-svVGo3NV-15" parent="1" target="ClLBJPwScbS-svVGo3NV-3">
          <mxGeometry relative="1" as="geometry">
            <mxPoint x="310" y="215" as="targetPoint" />
          </mxGeometry>
        </mxCell>
        <mxCell id="ClLBJPwScbS-svVGo3NV-19" value="findById(heroId)" style="html=1;verticalAlign=bottom;endArrow=block;curved=0;rounded=0;entryX=0;entryY=0;entryDx=0;entryDy=5;" edge="1" target="ClLBJPwScbS-svVGo3NV-18" parent="1" source="ClLBJPwScbS-svVGo3NV-3">
          <mxGeometry relative="1" as="geometry">
            <mxPoint x="570" y="265" as="sourcePoint" />
          </mxGeometry>
        </mxCell>
        <mxCell id="ClLBJPwScbS-svVGo3NV-20" value="hero" style="html=1;verticalAlign=bottom;endArrow=open;dashed=1;endSize=8;curved=0;rounded=0;exitX=0;exitY=1;exitDx=0;exitDy=-5;" edge="1" source="ClLBJPwScbS-svVGo3NV-18" parent="1" target="ClLBJPwScbS-svVGo3NV-3">
          <mxGeometry relative="1" as="geometry">
            <mxPoint x="570" y="335" as="targetPoint" />
          </mxGeometry>
        </mxCell>
        <mxCell id="ClLBJPwScbS-svVGo3NV-23" value="Validation" style="shape=umlFrame;whiteSpace=wrap;html=1;pointerEvents=0;" vertex="1" parent="1">
          <mxGeometry x="20" y="400" width="740" height="590" as="geometry" />
        </mxCell>
        <mxCell id="ClLBJPwScbS-svVGo3NV-24" value="" style="edgeStyle=none;orthogonalLoop=1;jettySize=auto;html=1;rounded=0;exitX=-0.005;exitY=0.273;exitDx=0;exitDy=0;exitPerimeter=0;entryX=0.999;entryY=0.285;entryDx=0;entryDy=0;entryPerimeter=0;endArrow=none;endFill=0;" edge="1" parent="1" source="ClLBJPwScbS-svVGo3NV-23" target="ClLBJPwScbS-svVGo3NV-23">
          <mxGeometry width="100" relative="1" as="geometry">
            <mxPoint x="25.000000000000046" y="563" as="sourcePoint" />
            <mxPoint x="723.5999999999999" y="560" as="targetPoint" />
            <Array as="points" />
          </mxGeometry>
        </mxCell>
        <mxCell id="ClLBJPwScbS-svVGo3NV-25" value="Invalid" style="text;html=1;align=center;verticalAlign=middle;resizable=0;points=[];autosize=1;strokeColor=none;fillColor=none;" vertex="1" parent="1">
          <mxGeometry x="20" y="438" width="60" height="30" as="geometry" />
        </mxCell>
        <mxCell id="ClLBJPwScbS-svVGo3NV-26" value="Valid" style="text;html=1;align=center;verticalAlign=middle;resizable=0;points=[];autosize=1;strokeColor=none;fillColor=none;" vertex="1" parent="1">
          <mxGeometry x="25" y="570" width="50" height="30" as="geometry" />
        </mxCell>
        <mxCell id="ClLBJPwScbS-svVGo3NV-27" value="AlreadyExistsException" style="html=1;verticalAlign=bottom;endArrow=open;dashed=1;endSize=8;curved=0;rounded=0;" edge="1" parent="1">
          <mxGeometry relative="1" as="geometry">
            <mxPoint x="260" y="490" as="sourcePoint" />
            <mxPoint x="69.5" y="490" as="targetPoint" />
          </mxGeometry>
        </mxCell>
        <mxCell id="ClLBJPwScbS-svVGo3NV-28" value="" style="html=1;points=[[0,0,0,0,5],[0,1,0,0,-5],[1,0,0,0,5],[1,1,0,0,-5]];perimeter=orthogonalPerimeter;outlineConnect=0;targetShapes=umlLifeline;portConstraint=eastwest;newEdgeStyle={&quot;curved&quot;:0,&quot;rounded&quot;:0};" vertex="1" parent="1">
          <mxGeometry x="270" y="630" width="10" height="40" as="geometry" />
        </mxCell>
        <mxCell id="ClLBJPwScbS-svVGo3NV-29" value="validateWisdom(group, hero)" style="html=1;align=left;spacingLeft=2;endArrow=block;rounded=0;edgeStyle=orthogonalEdgeStyle;curved=0;rounded=0;" edge="1" target="ClLBJPwScbS-svVGo3NV-28" parent="1">
          <mxGeometry x="0.008" relative="1" as="geometry">
            <mxPoint x="270" y="585" as="sourcePoint" />
            <Array as="points">
              <mxPoint x="270" y="580" />
              <mxPoint x="300" y="580" />
              <mxPoint x="300" y="650" />
            </Array>
            <mxPoint as="offset" />
          </mxGeometry>
        </mxCell>
        <mxCell id="ClLBJPwScbS-svVGo3NV-30" value="Validation" style="shape=umlFrame;whiteSpace=wrap;html=1;pointerEvents=0;" vertex="1" parent="1">
          <mxGeometry x="40" y="620" width="700" height="340" as="geometry" />
        </mxCell>
        <mxCell id="ClLBJPwScbS-svVGo3NV-31" value="Invalid" style="text;html=1;align=center;verticalAlign=middle;resizable=0;points=[];autosize=1;strokeColor=none;fillColor=none;" vertex="1" parent="1">
          <mxGeometry x="40" y="668" width="60" height="30" as="geometry" />
        </mxCell>
        <mxCell id="ClLBJPwScbS-svVGo3NV-32" value="Valid" style="text;html=1;align=center;verticalAlign=middle;resizable=0;points=[];autosize=1;strokeColor=none;fillColor=none;" vertex="1" parent="1">
          <mxGeometry x="45" y="780" width="50" height="30" as="geometry" />
        </mxCell>
        <mxCell id="ClLBJPwScbS-svVGo3NV-33" value="ValueNotSameException" style="html=1;verticalAlign=bottom;endArrow=open;dashed=1;endSize=8;curved=0;rounded=0;" edge="1" parent="1" target="ClLBJPwScbS-svVGo3NV-2">
          <mxGeometry relative="1" as="geometry">
            <mxPoint x="260" y="730" as="sourcePoint" />
            <mxPoint x="180" y="730" as="targetPoint" />
          </mxGeometry>
        </mxCell>
        <mxCell id="ClLBJPwScbS-svVGo3NV-34" value="" style="edgeStyle=none;orthogonalLoop=1;jettySize=auto;html=1;rounded=0;exitX=0.003;exitY=0.397;exitDx=0;exitDy=0;exitPerimeter=0;entryX=1.003;entryY=0.411;entryDx=0;entryDy=0;entryPerimeter=0;endArrow=none;endFill=0;" edge="1" parent="1">
          <mxGeometry width="100" relative="1" as="geometry">
            <mxPoint x="40.00000000000002" y="759.9999999999999" as="sourcePoint" />
            <mxPoint x="739.9999999999999" y="764.34" as="targetPoint" />
            <Array as="points" />
          </mxGeometry>
        </mxCell>
        <mxCell id="ClLBJPwScbS-svVGo3NV-35" value="" style="html=1;points=[[0,0,0,0,5],[0,1,0,0,-5],[1,0,0,0,5],[1,1,0,0,-5]];perimeter=orthogonalPerimeter;outlineConnect=0;targetShapes=umlLifeline;portConstraint=eastwest;newEdgeStyle={&quot;curved&quot;:0,&quot;rounded&quot;:0};" vertex="1" parent="1">
          <mxGeometry x="460" y="810" width="10" height="20" as="geometry" />
        </mxCell>
        <mxCell id="ClLBJPwScbS-svVGo3NV-36" value="saveGroup(group)" style="html=1;verticalAlign=bottom;startArrow=oval;endArrow=block;startSize=8;curved=0;rounded=0;entryX=0;entryY=0;entryDx=0;entryDy=5;" edge="1" target="ClLBJPwScbS-svVGo3NV-35" parent="1">
          <mxGeometry relative="1" as="geometry">
            <mxPoint x="270" y="815" as="sourcePoint" />
            <mxPoint as="offset" />
          </mxGeometry>
        </mxCell>
        <mxCell id="ClLBJPwScbS-svVGo3NV-37" value="" style="html=1;points=[[0,0,0,0,5],[0,1,0,0,-5],[1,0,0,0,5],[1,1,0,0,-5]];perimeter=orthogonalPerimeter;outlineConnect=0;targetShapes=umlLifeline;portConstraint=eastwest;newEdgeStyle={&quot;curved&quot;:0,&quot;rounded&quot;:0};" vertex="1" parent="1">
          <mxGeometry x="701" y="880" width="10" height="20" as="geometry" />
        </mxCell>
        <mxCell id="ClLBJPwScbS-svVGo3NV-38" value="saveHero(hero)" style="html=1;verticalAlign=bottom;startArrow=oval;endArrow=block;startSize=8;curved=0;rounded=0;entryX=0;entryY=0;entryDx=0;entryDy=5;" edge="1" target="ClLBJPwScbS-svVGo3NV-37" parent="1" source="ClLBJPwScbS-svVGo3NV-6">
          <mxGeometry relative="1" as="geometry">
            <mxPoint x="631" y="885" as="sourcePoint" />
          </mxGeometry>
        </mxCell>
      </root>
    </mxGraphModel>
  </diagram>
</mxfile>
